<svg class="whiteicon" version="1.1" id="Ebene_1" xmlns="http://www.w3.org/2000/svg" xmlns:xlink="http://www.w3.org/1999/xlink" x="0px" y="0px"
	 viewBox="0 0 92.8 58.1" style="enable-background:new 0 0 92.8 58.1;" xml:space="preserve">
<title>arrow</title>
<path fill="#ffffff" class="st0" d="M86.6,35.3H6.3c-3.5,0-6.3-2.8-6.3-6.3s2.8-6.3,6.3-6.3h80.3c3.5,0,6.3,2.8,6.3,6.3S90,35.3,86.6,35.3z"/>
<path fill="#ffffff" class="st0" d="M74.6,58.1c-3.5,0-6.2-2.8-6.2-6.3c0-1,0.2-2,0.7-2.9L81,26.1c1.6-3.1,5.4-4.2,8.4-2.6c3.1,1.6,4.2,5.4,2.6,8.4
	l0,0L80.2,54.8C79.1,56.8,77,58.1,74.6,58.1z"/>
<path fill="#ffffff" class="st0" d="M86.6,35.3c-2.3,0-4.5-1.3-5.5-3.4L69.1,9.1c-1.6-3.1-0.4-6.8,2.6-8.4c3.1-1.6,6.8-0.4,8.4,2.6l11.9,22.8
	c1.6,3.1,0.4,6.8-2.7,8.4C88.6,35,87.6,35.3,86.6,35.3L86.6,35.3z"/>
</svg>