<svg id="Ebene_1" data-name="Ebene 1" xmlns="http://www.w3.org/2000/svg" viewBox="0 0 92.45 84.48"><defs><style>.cls-1{fill:#ffa3ab;}</style></defs><title>heart</title><path class="cls-1" d="M66.69,17.71c-9.53,0-14.88,5.34-18.6,9.53C44.37,23.05,39,17.71,29.5,17.71A20.84,20.84,0,0,0,8.57,38.63c0,13.95,8.14,22.55,38.13,47l1.39,1.16,1.4-1.16c30-24.41,38.12-33,38.12-47A20.84,20.84,0,0,0,66.69,17.71Z" transform="translate(-1.87 -11)"/><path d="M48.09,95.48l-5.66-4.71C12.38,66.3,1.87,56.17,1.87,38.63A27.66,27.66,0,0,1,29.5,11a28.16,28.16,0,0,1,18.59,6.77A28.17,28.17,0,0,1,66.69,11,27.66,27.66,0,0,1,94.32,38.63c0,17.54-10.52,27.67-40.57,52.14ZM29.5,24.42A14.07,14.07,0,0,0,15.28,38.63c0,10.25,5.61,17.15,32.81,39.43C75.29,55.78,80.9,48.88,80.9,38.63A14.06,14.06,0,0,0,66.69,24.42c-6.57,0-10.17,3.44-13.58,7.28l-5,5.64-5-5.64C39.67,27.86,36.06,24.42,29.5,24.42Z" transform="translate(-1.87 -11)"/></svg>