<svg id="Ebene_1" data-name="Ebene 1" xmlns="http://www.w3.org/2000/svg" viewBox="0 0 70.5 75.04"><title>home</title><path d="M68.83,87.91H30.67A16.18,16.18,0,0,1,14.5,71.75a5.26,5.26,0,0,1,10.52,0,5.65,5.65,0,0,0,5.65,5.64H68.83a5.65,5.65,0,0,0,5.65-5.64V42.41c0-3.3-1-5.49-6.22-8.37l-21-11.27a5.26,5.26,0,1,1,5-9.27l21,11.29C78.75,27.79,85,32.48,85,42.41V71.75A16.18,16.18,0,0,1,68.83,87.91Z" transform="translate(-14.5 -12.87)"/><path d="M19.76,77a5.27,5.27,0,0,1-5.26-5.26V42.41c0-9.93,6.25-14.62,11.7-17.6L47.26,13.5a5.26,5.26,0,1,1,5,9.27l-21,11.29C26,36.92,25,39.11,25,42.41V71.75A5.26,5.26,0,0,1,19.76,77Z" transform="translate(-14.5 -12.87)"/><circle cx="46.23" cy="35.83" r="5.89"/><path d="M40,84.83a5.27,5.27,0,0,1-5.26-5.26V59.36a5.27,5.27,0,0,1,10.53,0V79.57A5.27,5.27,0,0,1,40,84.83Z" transform="translate(-14.5 -12.87)"/></svg>