<svg id="Ebene_1" data-name="Ebene 1" xmlns="http://www.w3.org/2000/svg" viewBox="0 0 91.08 81.34"><title>web</title><path d="M90.29,57.19a5.7,5.7,0,0,1-4-1.68L68.46,37.72a5.71,5.71,0,0,1,8.08-8.08l17.79,17.8a5.72,5.72,0,0,1-4,9.75Z" transform="translate(-4.92 -10.78)"/><path d="M72.5,74.94a5.72,5.72,0,0,1-4-9.75L86.25,47.4a5.71,5.71,0,0,1,8.08,8.07L76.54,73.26A5.7,5.7,0,0,1,72.5,74.94Z" transform="translate(-4.92 -10.78)"/><path d="M28.42,74.94a5.66,5.66,0,0,1-4-1.68L6.59,55.47a5.71,5.71,0,0,1,8.08-8.07L32.46,65.19a5.72,5.72,0,0,1-4,9.75Z" transform="translate(-4.92 -10.78)"/><path d="M10.63,57.19a5.72,5.72,0,0,1-4-9.75l17.8-17.8a5.71,5.71,0,1,1,8.07,8.08L14.67,55.51A5.66,5.66,0,0,1,10.63,57.19Z" transform="translate(-4.92 -10.78)"/><path d="M41.25,92.13A5.74,5.74,0,0,1,35.7,85L53.25,15.11a5.71,5.71,0,0,1,11.08,2.78L46.78,87.8A5.71,5.71,0,0,1,41.25,92.13Z" transform="translate(-4.92 -10.78)"/></svg>