<svg version="1" xmlns="http://www.w3.org/2000/svg" width="933.333" height="933.333" viewBox="0 0 700.000000 700.000000"><path d="M444 43.5c-10.2 3-19.9 5.9-21.7 6.5-1.8.6-4 1.3-5 1.5-1 .2-7.4 2-14.3 4s-13.2 3.8-14 4c-.8.2-7.6 2.1-15 4.3-7.4 2.2-24.7 7.2-38.5 11.2-13.7 3.9-26.9 7.8-29.2 8.6-2.4.7-5.7 1.6-7.5 1.9-1.7.3-3.4.8-3.8 1-.6.4-18.4 5.5-77 22.4-40.4 11.6-39.3 11.3-40.7 12.4-.7.5-2.9 5.2-4.9 10.5-2.1 5.4-5.3 13.5-7.1 18.2l-3.4 8.5 30.4 30c16.8 16.5 47.9 47.1 69.2 68 21.3 20.9 41 40.2 43.7 42.9 4 4 4.7 5.1 3.6 6.1-.7.7-6.7 6.1-13.3 12-6.6 6-14 12.7-16.5 14.9-2.5 2.3-8.8 7.9-14 12.6-5.2 4.7-11.3 10.2-13.5 12.2-2.2 2.1-4.2 3.8-4.5 3.7-.3 0-7.2-8.1-15.5-18.1-8.2-9.9-15.5-18.6-16-19.2-.9-.9-24.7-29.2-51.5-61.1-4.1-4.9-8.8-10.4-10.5-12.2l-3-3.2-4.7 4.2c-2.6 2.3-8.5 7.3-13.1 11.2-5.2 4.3-9.6 8.9-11.4 12-9 15.3-47.3 80.5-48.9 83.3-4.1 7.3-5.3 9.2-13.9 23.7-9.5 16.1-28.1 47.7-29.9 51-.6 1.1-3.1 5.3-5.5 9.2l-4.3 7.3 5.3 4.7c3 2.7 8.5 7.7 12.4 11.3 3.8 3.6 9 8.4 11.5 10.7 9.3 8.5 11 10 22 20.3 6.2 5.8 11.8 10.9 12.4 11.5 4.6 4.1 24.5 22.4 26.2 24 1.9 1.9 19.1 17.7 25.9 24 5.4 4.9 22.8 21 24.9 23 1.2 1.1 7.5 6.9 14.1 13 6.6 6 12.7 11.6 13.6 12.5 1.3 1.3 16.8 15.6 24.9 23 7.9 7.3 23.7 21.9 26.7 24.7 1.8 1.8 4 3.3 4.8 3.3.8 0 10.8-5.9 22.2-13.2 11.4-7.2 24.9-15.7 29.8-18.8 13.7-8.6 28.4-17.9 34-21.5 8.6-5.5 133.9-84.7 145.2-91.7 6-3.7 11.3-7.1 11.8-7.6.6-.4 4.3-2.8 8.3-5.2l7.3-4.3 9.1 8.9c5 4.9 19.7 19.4 32.6 32.2l23.5 23.3 12.6-12.3c6.8-6.8 13.5-13.2 14.6-14.3 2.9-2.7 36.7-34.8 47.5-45.2 9.8-9.4 15.1-14.4 24.2-22.9l6.5-6.1-4.6-7.6c-4.8-8-14.2-23.5-75.1-124.2-20-33-36.5-60.7-36.7-61.6-.3-.9.6-2.3 1.9-3.1 1.3-.9 9.4-7.1 18-13.9 8.6-6.8 22.2-17.5 30.2-23.7 8-6.2 14.6-11.6 14.6-12 0-.4-1.7-2.5-3.8-4.7-2-2.2-7.5-8.3-12.2-13.5-4.7-5.2-9.4-10.4-10.5-11.6-1.1-1.1-5.4-5.9-9.6-10.5-8.5-9.2-8.8-9.6-20.7-22.7-4.6-5-9.1-9.9-10-11-1.6-1.8-11.1-12.3-25.7-28.2-5.9-6.5-9-9.9-25.5-28-4.7-5.1-9.8-10.8-11.5-12.5-1.6-1.8-6.4-7-10.5-11.6-10.7-12-16.6-17.9-17.6-17.8-.5 0-9.2 2.5-19.4 5.4zm14.5 40.8c3.3 3.4 10.1 10.7 15 16.2 5 5.4 9.7 10.6 10.5 11.5.8.9 5.1 5.6 9.5 10.4 4.4 4.9 9.1 10.1 10.5 11.6 11.8 12.8 20.4 22.3 24.1 26.4 2.4 2.7 5.3 5.9 6.4 7.1 1.1 1.1 6.5 7 12 13 5.5 6.1 11.9 13 14.2 15.5 2.3 2.5 5.1 5.7 6.2 7.2l2.1 2.7-5.7 4.6c-3.2 2.5-6.5 5.2-7.3 5.8-.8.7-8.9 7-18 14.2-9.1 7.1-22.8 17.9-30.5 24-16.5 13.1-32.7 25.9-37.6 29.7-1.9 1.5-18.6 14.7-37.2 29.3-18.5 14.7-34.2 26.5-34.7 26.3-.5-.2-17.6-16.7-38.1-36.8-20.4-20.1-44.6-43.8-53.7-52.7C238.3 183.6 205 150.7 205 150.1c0-.3 11.4-3.9 25.3-7.8 13.8-4 37.8-10.9 53.2-15.3 15.4-4.5 45.8-13.2 67.5-19.5 75.6-21.7 99.5-28.7 99.9-29.1 1-.9 2-.1 7.6 5.9zm80.2 219.5c6.2 10.3 28.5 47.5 49.7 82.7l38.6 64-5.3 4.9c-2.8 2.7-10.6 10.1-17.3 16.5-19.4 18.6-36.5 34.6-36.9 34.6-.2 0-18.3-17.6-40.2-39.1-21.9-21.6-45-44.2-51.3-50.4-23.9-23.2-52.1-51.3-51.8-51.4.4-.3 18.2-14.3 53.3-42 38.1-30.1 35.8-28.3 42.8-33.9 3.3-2.6 6.2-4.7 6.6-4.7.3 0 5.6 8.5 11.8 18.8zM177.6 334c7.1 8.5 18.1 21.6 24.3 29 6.2 7.4 12.3 14.6 13.5 16 2.4 2.9 17.3 20.5 19.8 23.5 3.5 4.3 21.1 25.1 23.2 27.5 1.2 1.4 10.4 12.4 20.6 24.5 10.1 12.1 19.2 22.9 20.2 24 .9 1.1 10.5 12.6 21.3 25.5 10.9 12.9 20.9 24.9 22.4 26.5 1.4 1.7 4.5 5.3 6.9 8.2l4.2 5.1-12.2 7.7c-6.8 4.3-14.5 9.2-17.3 11-12.4 8-73.2 46.3-75.2 47.3-1.8 1-2.6.8-5.1-1.6-5.8-5.4-22.8-21.1-25.7-23.7-1.6-1.5-5.7-5.3-9-8.4-6.7-6.2-25.2-23.3-29.4-27-1.4-1.3-5.3-4.9-8.6-8-3.3-3.1-11.4-10.6-18-16.6-6.6-6.1-12.9-11.9-14.1-13-1.9-1.8-17.6-16.4-24.9-23-4.8-4.4-23.5-21.7-27.2-25.1-1.8-1.8-7.6-7.1-12.8-11.9-5.2-4.8-9.5-9.2-9.5-9.7s7.7-14.1 17.1-30.1c9.4-16.1 18.3-31.2 19.7-33.7 1.4-2.5 4.4-7.7 6.7-11.5 2.3-3.9 11.3-19.2 20-34 8.6-14.9 16.6-28.4 17.7-30.2l1.9-3.2 8.2 9.7c4.5 5.3 14.1 16.7 21.3 25.2zm196.5 33c20.5 20.1 42.6 41.8 49.3 48.3 6.7 6.6 21.1 20.8 32.2 31.8l20.1 19.8-14.6 9.3c-8 5-17.3 10.9-20.6 13-52.6 33.4-55.5 35.1-57.2 33.7-.9-.8-5.4-6.1-10.2-11.9-4.7-5.8-9.1-11-9.7-11.5-.6-.6-5.5-6.4-11-13-5.4-6.6-10.9-13.1-12.1-14.5-1.2-1.4-17.5-20.7-36.2-43L270 388.5l3.9-3.5c2.1-2 7-6.3 10.7-9.7 3.8-3.3 8.1-7.2 9.5-8.4 8.9-8.3 14.4-13.2 21.4-19.4 4.3-3.9 10.3-9.4 13.4-12.2 3.1-2.9 6.1-5.2 6.8-5 .7.1 18 16.6 38.4 36.7z"/></svg>